<svg width="30.5" height="35" viewBox="0 0 61 70" fill="none" xmlns="http://www.w3.org/2000/svg">
<path fill-rule="evenodd" clip-rule="evenodd" d="M10 0C4.47715 0 0 4.47715 0 10V60H0.426764C0.150386 60.7819 0 61.6234 0 62.5C0 66.6421 3.35786 70 7.5 70H55.5C58.2614 70 60.5 67.7614 60.5 65C60.5 63.9059 60.1486 62.8939 59.5524 62.0706C58.7652 63.7987 57.0229 65 55 65H7.5C6.11929 65 5 63.8807 5 62.5C5 61.1193 6.11929 60 7.5 60H32.75H50.5C56.0228 60 60.5 55.5228 60.5 50V10C60.5 4.47715 56.0228 0 50.5 0H10ZM27.75 55H50C52.7614 55 55 52.7614 55 50V10C55 7.23858 52.7614 5 50 5H10.5C7.73858 5 5.5 7.23858 5.5 10V55H7.5H27.75ZM32.3346 37.8909C30.5021 38.8537 28.4156 39.3985 26.2018 39.3985C18.9106 39.3985 13 33.489 13 26.1992C13 18.9095 18.9106 13 26.2018 13C33.4929 13 39.4035 18.9095 39.4035 26.1992C39.4035 28.4708 38.8296 30.6084 37.8188 32.4749L47.6825 41.6193L42.4464 47.2652L32.3346 37.8909ZM33.9028 26.1992C33.9028 30.4516 30.4549 33.8988 26.2018 33.8988C21.9486 33.8988 18.5007 30.4516 18.5007 26.1992C18.5007 21.9469 21.9486 18.4997 26.2018 18.4997C30.4549 18.4997 33.9028 21.9469 33.9028 26.1992Z" fill="#FF8000"/>
</svg>
