<svg width="454" height="70" viewBox="0 0 454 70" fill="none" xmlns="http://www.w3.org/2000/svg">
<path fill-rule="evenodd" clip-rule="evenodd" d="M10 0C4.47715 0 0 4.47715 0 10V60H0.426764C0.150386 60.7819 0 61.6234 0 62.5C0 66.6421 3.35786 70 7.5 70H55.5C58.2614 70 60.5 67.7614 60.5 65C60.5 63.9059 60.1486 62.8939 59.5524 62.0706C58.7652 63.7987 57.0229 65 55 65H7.5C6.11929 65 5 63.8807 5 62.5C5 61.1193 6.11929 60 7.5 60H32.75H50.5C56.0228 60 60.5 55.5228 60.5 50V10C60.5 4.47715 56.0228 0 50.5 0H10ZM27.75 55H50C52.7614 55 55 52.7614 55 50V10C55 7.23858 52.7614 5 50 5H10.5C7.73858 5 5.5 7.23858 5.5 10V55H7.5H27.75ZM32.3346 37.8909C30.5021 38.8537 28.4156 39.3985 26.2018 39.3985C18.9106 39.3985 13 33.489 13 26.1992C13 18.9095 18.9106 13 26.2018 13C33.4929 13 39.4035 18.9095 39.4035 26.1992C39.4035 28.4708 38.8296 30.6084 37.8188 32.4749L47.6825 41.6193L42.4464 47.2652L32.3346 37.8909ZM33.9028 26.1992C33.9028 30.4516 30.4549 33.8988 26.2018 33.8988C21.9486 33.8988 18.5007 30.4516 18.5007 26.1992C18.5007 21.9469 21.9486 18.4997 26.2018 18.4997C30.4549 18.4997 33.9028 21.9469 33.9028 26.1992Z" fill="#FF8000"/>
<path d="M83.0312 16.0234H95.4727C101.142 16.0234 105.253 16.8346 107.805 18.457C110.375 20.0612 111.66 22.6224 111.66 26.1406C111.66 28.5286 111.095 30.4883 109.965 32.0195C108.853 33.5508 107.367 34.4714 105.508 34.7812V35.0547C108.042 35.6198 109.865 36.6771 110.977 38.2266C112.107 39.776 112.672 41.8359 112.672 44.4062C112.672 48.0521 111.35 50.8958 108.707 52.9375C106.082 54.9792 102.509 56 97.9883 56H83.0312V16.0234ZM91.5078 31.8555H96.4297C98.7266 31.8555 100.385 31.5 101.406 30.7891C102.445 30.0781 102.965 28.9023 102.965 27.2617C102.965 25.7305 102.4 24.6367 101.27 23.9805C100.158 23.306 98.3893 22.9688 95.9648 22.9688H91.5078V31.8555ZM91.5078 38.582V49H97.0312C99.3646 49 101.087 48.5534 102.199 47.6602C103.311 46.7669 103.867 45.3997 103.867 43.5586C103.867 40.2409 101.497 38.582 96.7578 38.582H91.5078ZM126.645 40.6602C126.645 43.6862 127.137 45.974 128.121 47.5234C129.124 49.0729 130.746 49.8477 132.988 49.8477C135.212 49.8477 136.807 49.082 137.773 47.5508C138.758 46.0013 139.25 43.7044 139.25 40.6602C139.25 37.6341 138.758 35.3646 137.773 33.8516C136.789 32.3385 135.176 31.582 132.934 31.582C130.71 31.582 129.105 32.3385 128.121 33.8516C127.137 35.3464 126.645 37.6159 126.645 40.6602ZM147.781 40.6602C147.781 45.6367 146.469 49.5286 143.844 52.3359C141.219 55.1432 137.564 56.5469 132.879 56.5469C129.944 56.5469 127.355 55.9089 125.113 54.6328C122.871 53.3385 121.148 51.4883 119.945 49.082C118.742 46.6758 118.141 43.8685 118.141 40.6602C118.141 35.6654 119.444 31.7826 122.051 29.0117C124.658 26.2409 128.322 24.8555 133.043 24.8555C135.978 24.8555 138.566 25.4935 140.809 26.7695C143.051 28.0456 144.773 29.8776 145.977 32.2656C147.18 34.6536 147.781 37.4518 147.781 40.6602ZM161.316 40.6602C161.316 43.6862 161.809 45.974 162.793 47.5234C163.796 49.0729 165.418 49.8477 167.66 49.8477C169.884 49.8477 171.479 49.082 172.445 47.5508C173.43 46.0013 173.922 43.7044 173.922 40.6602C173.922 37.6341 173.43 35.3646 172.445 33.8516C171.461 32.3385 169.848 31.582 167.605 31.582C165.382 31.582 163.777 32.3385 162.793 33.8516C161.809 35.3464 161.316 37.6159 161.316 40.6602ZM182.453 40.6602C182.453 45.6367 181.141 49.5286 178.516 52.3359C175.891 55.1432 172.236 56.5469 167.551 56.5469C164.616 56.5469 162.027 55.9089 159.785 54.6328C157.543 53.3385 155.82 51.4883 154.617 49.082C153.414 46.6758 152.812 43.8685 152.812 40.6602C152.812 35.6654 154.116 31.7826 156.723 29.0117C159.329 26.2409 162.993 24.8555 167.715 24.8555C170.65 24.8555 173.238 25.4935 175.48 26.7695C177.723 28.0456 179.445 29.8776 180.648 32.2656C181.852 34.6536 182.453 37.4518 182.453 40.6602ZM197.355 39.375L200.992 34.7266L209.551 25.4297H218.957L206.816 38.6914L219.695 56H210.07L201.266 43.6133L197.684 46.4844V56H189.344V13.4531H197.684V32.4297L197.246 39.375H197.355ZM247.75 56H224.727V16.0234H247.75V22.9688H233.203V31.7461H246.738V38.6914H233.203V49H247.75V56ZM261.723 40.3867L251.879 25.4297H261.34L267.273 35.1641L273.262 25.4297H282.723L272.77 40.3867L283.188 56H273.699L267.273 45.5273L260.82 56H251.359L261.723 40.3867ZM304.625 56.5469C301.034 56.5469 298.217 55.2435 296.176 52.6367H295.738C296.03 55.1888 296.176 56.6654 296.176 57.0664V69.4531H287.836V25.4297H294.617L295.793 29.3945H296.176C298.126 26.3685 301.016 24.8555 304.844 24.8555C308.453 24.8555 311.279 26.25 313.32 29.0391C315.362 31.8281 316.383 35.7018 316.383 40.6602C316.383 43.9232 315.9 46.7578 314.934 49.1641C313.986 51.5703 312.628 53.4023 310.859 54.6602C309.091 55.918 307.013 56.5469 304.625 56.5469ZM302.164 31.5273C300.104 31.5273 298.6 32.1654 297.652 33.4414C296.704 34.6992 296.212 36.7865 296.176 39.7031V40.6055C296.176 43.8867 296.659 46.2383 297.625 47.6602C298.609 49.082 300.159 49.793 302.273 49.793C306.01 49.793 307.879 46.7122 307.879 40.5508C307.879 37.543 307.414 35.2917 306.484 33.7969C305.573 32.2839 304.133 31.5273 302.164 31.5273ZM331.613 56H323.273V13.4531H331.613V56ZM347.035 40.6602C347.035 43.6862 347.527 45.974 348.512 47.5234C349.514 49.0729 351.137 49.8477 353.379 49.8477C355.603 49.8477 357.198 49.082 358.164 47.5508C359.148 46.0013 359.641 43.7044 359.641 40.6602C359.641 37.6341 359.148 35.3646 358.164 33.8516C357.18 32.3385 355.566 31.582 353.324 31.582C351.1 31.582 349.496 32.3385 348.512 33.8516C347.527 35.3464 347.035 37.6159 347.035 40.6602ZM368.172 40.6602C368.172 45.6367 366.859 49.5286 364.234 52.3359C361.609 55.1432 357.954 56.5469 353.27 56.5469C350.335 56.5469 347.746 55.9089 345.504 54.6328C343.262 53.3385 341.539 51.4883 340.336 49.082C339.133 46.6758 338.531 43.8685 338.531 40.6602C338.531 35.6654 339.835 31.7826 342.441 29.0117C345.048 26.2409 348.712 24.8555 353.434 24.8555C356.368 24.8555 358.957 25.4935 361.199 26.7695C363.441 28.0456 365.164 29.8776 366.367 32.2656C367.57 34.6536 368.172 37.4518 368.172 40.6602ZM392.125 24.8555C393.255 24.8555 394.194 24.9375 394.941 25.1016L394.312 32.9219C393.638 32.7396 392.818 32.6484 391.852 32.6484C389.19 32.6484 387.112 33.332 385.617 34.6992C384.141 36.0664 383.402 37.9805 383.402 40.4414V56H375.062V25.4297H381.379L382.609 30.5703H383.02C383.967 28.8568 385.243 27.4805 386.848 26.4414C388.47 25.3841 390.229 24.8555 392.125 24.8555ZM413.152 30.7891C411.384 30.7891 409.999 31.3542 408.996 32.4844C407.993 33.5964 407.419 35.1823 407.273 37.2422H418.977C418.94 35.1823 418.402 33.5964 417.363 32.4844C416.324 31.3542 414.921 30.7891 413.152 30.7891ZM414.328 56.5469C409.406 56.5469 405.56 55.1888 402.789 52.4727C400.018 49.7565 398.633 45.9102 398.633 40.9336C398.633 35.8112 399.909 31.8555 402.461 29.0664C405.031 26.2591 408.577 24.8555 413.098 24.8555C417.418 24.8555 420.781 26.0859 423.188 28.5469C425.594 31.0078 426.797 34.4076 426.797 38.7461V42.793H407.082C407.173 45.1628 407.875 47.013 409.188 48.3438C410.5 49.6745 412.341 50.3398 414.711 50.3398C416.552 50.3398 418.293 50.1484 419.934 49.7656C421.574 49.3828 423.288 48.7721 425.074 47.9336V54.3867C423.616 55.1159 422.057 55.6536 420.398 56C418.74 56.3646 416.716 56.5469 414.328 56.5469ZM450.641 24.8555C451.771 24.8555 452.71 24.9375 453.457 25.1016L452.828 32.9219C452.154 32.7396 451.333 32.6484 450.367 32.6484C447.706 32.6484 445.628 33.332 444.133 34.6992C442.656 36.0664 441.918 37.9805 441.918 40.4414V56H433.578V25.4297H439.895L441.125 30.5703H441.535C442.483 28.8568 443.759 27.4805 445.363 26.4414C446.986 25.3841 448.745 24.8555 450.641 24.8555Z" fill="#654744"/>
</svg>
